# xmcd
#
# Track frame offsets: 
#        150
#        24108
#        39993
#        58801
#        78326
#        87789
#        106984
#        128787
#        149575
#        169077
#        190604
#        205978
#        226613
#        249586
#        269140
#        288607
#
# Disc length: 4079 seconds
#
# Revision: 0
# Processed by: cddbd v1.4PL0 Copyright (c) Steve Scherf et al.
# Submitted via: ExactAudioCopy v0.95a3
#
DISCID=dc0fed10
DTITLE=Various Artist - 新悲伤情歌2
DYEAR=2002
DGENRE=Other
TTITLE0=周杰伦-半岛铁盒
TTITLE1=阿杜-他一定很爱你
TTITLE2=刘德华-肉麻情歌
TTITLE3=周传雄-记事本
TTITLE4=陈小春-失恋王
TTITLE5=迪克牛仔-勇气
TTITLE6=范逸臣-I Believe
TTITLE7=永邦-你是我最深爱的人
TTITLE8=阿杜-天黑
TTITLE9=周杰伦-开不了口
TTITLE10=陶诘-月亮代表谁的心
TTITLE11=庾澄庆-情非得已
TTITLE12=齐秦-呼唤
TTITLE13=王力宏-唯一
TTITLE14=杨坤-无所谓
TTITLE15=阿杜-天天看到你
EXTD=
EXTT0=
EXTT1=
EXTT2=
EXTT3=
EXTT4=
EXTT5=
EXTT6=
EXTT7=
EXTT8=
EXTT9=
EXTT10=
EXTT11=
EXTT12=
EXTT13=
EXTT14=
EXTT15=
PLAYORDER=
